<svg xmlns="http://www.w3.org/2000/svg" xmlns:xlink="http://www.w3.org/1999/xlink" width="1080" height="1080" viewBox="0 0 1080 1080">
  <defs>
    <clipPath id="clip-Instagram_投稿_1">
      <rect width="1080" height="1080"/>
    </clipPath>
  </defs>
  <g id="Instagram_投稿_1" data-name="Instagram 投稿 – 1" clip-path="url(#clip-Instagram_投稿_1)">
    <path id="tweet" d="M154.879,90.2H98.559V32.12a13.882,13.882,0,0,0-14.08-14.08c-8.8,0-12.32,7.04-12.32,14.08V90.2H14.08A13.882,13.882,0,0,0,0,104.279c0,8.8,5.28,14.08,14.08,14.08h58.08v58.08a13.882,13.882,0,0,0,14.08,14.08c8.8,0,14.08-5.28,14.08-14.08V116.6H158.4a13.882,13.882,0,0,0,14.08-14.08C172.479,93.719,163.679,90.2,154.879,90.2Zm264-86.239V2.2h-1.76c-1.76,0-161.919,21.12-253.438,205.918C96.8,341.877,100.319,382.357,105.6,382.357c5.28,1.76,59.84-114.4,117.919-161.919,91.519-19.36,116.159-63.359,116.159-63.359s-26.4,3.52-36.96,3.52a90.959,90.959,0,0,1-29.92-5.28c22.88-21.12,42.24-26.4,61.6-29.92,15.84-3.52,31.68-7.04,52.8-21.12,38.72-28.16,33.44-96.8,31.68-100.319Z" transform="translate(329.93 347.712)" fill="#fff"/>
  </g>
</svg>
