<svg xmlns="http://www.w3.org/2000/svg" xmlns:xlink="http://www.w3.org/1999/xlink" width="1080" height="1080" viewBox="0 0 1080 1080"><defs><clipPath id="a"><rect width="2042" height="2042" fill="#fff"/></clipPath><clipPath id="c"><rect width="1080" height="1080"/></clipPath></defs><g id="b" clip-path="url(#c)"><g transform="translate(-481 -481)" clip-path="url(#a)"><path d="M292.907,168.625H186.4V58.784a26.253,26.253,0,0,0-26.628-26.628c-16.642,0-23.3,13.314-23.3,26.628v109.84H26.629A26.253,26.253,0,0,0,0,195.251c0,16.643,9.985,26.628,26.628,26.628H136.47v109.84A26.253,26.253,0,0,0,163.1,358.347c16.643,0,26.628-9.986,26.628-26.628V218.552h109.84a26.254,26.254,0,0,0,26.628-26.628C326.192,175.28,309.549,168.625,292.907,168.625ZM792.181,5.53V2.2h-3.328c-3.328,0-306.22,39.942-479.3,389.43C183.069,644.594,189.724,721.149,199.711,721.149,209.7,724.478,312.88,504.8,422.718,414.93,595.8,378.316,642.4,295.106,642.4,295.106s-49.927,6.657-69.9,6.657a172.021,172.021,0,0,1-56.584-9.985c43.27-39.942,79.884-49.927,116.5-56.584,29.956-6.657,59.913-13.314,99.855-39.942,73.227-53.256,63.241-183.067,59.913-189.722Z" transform="translate(623.959 659.55)" fill="#fff"/></g></g></svg>